PathFileType	4	(X/Y/Z)	/Users/niels/Desktop/University/Third Semester/Perception and Action/Exam/Gymnastics Motion Tracking/Code for Gym Tracking/Analyzed Data/Webcam_Backflip/id3_3_baseline_Sports2D/id3_3_baseline_Sports2D_px_person00.trc
DataRate	CameraRate	NumFrames	NumMarkers	Units	OrigDataRate	OrigDataStartFrame	OrigNumFrames
29.81132075471698	29.81132075471698	12	22	m	29.81132075471698	79	159
Frame#	Time	Hip			RHip			RKnee			RAnkle			RBigToe			RSmallToe			RHeel			LHip			LKnee			LAnkle			LBigToe			LSmallToe			LHeel			Neck			Head			Nose			RShoulder			RElbow			RWrist			LShoulder			LElbow			LWrist		
		X1	Y1	Z1	X2	Y2	Z2	X3	Y3	Z3	X4	Y4	Z4	X5	Y5	Z5	X6	Y6	Z6	X7	Y7	Z7	X8	Y8	Z8	X9	Y9	Z9	X10	Y10	Z10	X11	Y11	Z11	X12	Y12	Z12	X13	Y13	Z13	X14	Y14	Z14	X15	Y15	Z15	X16	Y16	Z16	X17	Y17	Z17	X18	Y18	Z18	X19	Y19	Z19	X20	Y20	Z20	X21	Y21	Z21	X22	Y22	Z22
79	2.65	1.08603987624608	-0.272085816238734	0.0	1.0785378885675958	-0.27222791205197255	0.0	1.0032060059291037	-0.3574513828208454	0.0	0.9825694413767783	-0.2937987978374593	0.0	0.9558359757771525	-0.32256909606761	0.0	0.9545699006151568	-0.3169272046917101	0.0	0.9789745398386624	-0.27796668142412273	0.0	1.0935905209117456	-0.27278259912842306	0.0	1.035428025477226	-0.36084576950156605	0.0	0.9984106263964591	-0.30149143386321847	0.0	0.9811437379798595	-0.33636927951033396	0.0	0.973992429167419	-0.34683633296481386	0.0	0.9920692442329253	-0.27568528563787653	0.0	1.1495282771147326	-0.39177613210270884	0.0	1.193469666312924	-0.44812569286542187	0.0	1.1552822733395849	-0.44273798700967637	0.0	1.1261074926549663	-0.3796218598650794	0.0	1.0638285557978804	-0.3303875686466702	0.0	1.0207760359179399	-0.3532255164880845	0.0	1.153286317449477	-0.37752804984610666	0.0	1.1122718675751126	-0.33026121087649823	0.0	1.0711387620205517	-0.36216083115497116	0.0
80	2.6835443037974684	1.077638099891918	-0.2926990590460002	0.0	1.070010832116947	-0.2936303839874923	0.0	1.0182150303410171	-0.3981267599041477	0.0	0.9720461699675388	-0.36522692446461186	0.0	0.9588355531070178	-0.4079159332129084	0.0	0.9527323340820957	-0.401681915169143	0.0	0.9628959332056352	-0.3518874319654677	0.0	1.086124022359708	-0.29305628059432115	0.0	1.047353492735826	-0.39792393214222527	0.0	0.9909853633381328	-0.36856262333312856	0.0	0.9819090818910503	-0.41068296728874054	0.0	0.9730125295914832	-0.41446690815472115	0.0	0.9734426188460902	-0.3461544673720054	0.0	1.1775470324555037	-0.3846588339623288	0.0	1.2384815023808058	-0.4278904016566942	0.0	1.1977297368279254	-0.4319351845324098	0.0	1.150651692605909	-0.3779134005509747	0.0	1.076571523052548	-0.35772174891791664	0.0	1.0399952747355174	-0.3971721382009851	0.0	1.1767355070062138	-0.3696933483699022	0.0	1.128170838684106	-0.3511448645198157	0.0	1.091351798561977	-0.39755634207694057	0.0
81	2.7170886075949365	1.0707907201808184	-0.32309525539753603	0.0	1.0638498863643924	-0.3241197964364405	0.0	1.0358789628040863	-0.43993178418472034	0.0	0.9772947410645265	-0.4475402263059587	0.0	0.9812814781720762	-0.497979360487162	0.0	0.9713161860329117	-0.4924839239257202	0.0	0.963942264587399	-0.4393209868598366	0.0	1.0788632858134202	-0.3230621502752905	0.0	1.059753740606639	-0.43742948254128333	0.0	0.9952578134450594	-0.44565983470170767	0.0	0.9998095611393858	-0.49255595713108224	0.0	0.9874476733327985	-0.4905841724805891	0.0	0.968580249062188	-0.4300977745464057	0.0	1.1964403289274723	-0.3778163879233637	0.0	1.2698521018007334	-0.40512652781740377	0.0	1.229027669807237	-0.4183997293768366	0.0	1.1682496228161778	-0.3768651391407903	0.0	1.092830346932502	-0.38931527631013374	0.0	1.066299220132701	-0.4438555873496301	0.0	1.1910581739298678	-0.36332924563244007	0.0	1.1415117651908095	-0.37563723209595873	0.0	1.1135636433751082	-0.4333241126457985	0.0
82	2.750632911392405	1.0659352882095978	-0.3606301566206598	0.0	1.0607471101388992	-0.3615145632818145	0.0	1.0534602636866273	-0.48254462773468615	0.0	0.9971480354327162	-0.5314982702795047	0.0	1.0178088257579199	-0.5828951343320012	0.0	1.0056177544705232	-0.5791971674900261	0.0	0.981763798527361	-0.5297766161578046	0.0	1.0722560300482087	-0.36019258803989057	0.0	1.069885908725244	-0.47878446160764904	0.0	1.0087840256371212	-0.524543358123853	0.0	1.028809787506891	-0.5717172821548302	0.0	1.0120272015563296	-0.5665642954225631	0.0	0.9779478312372997	-0.5175419335683579	0.0	1.2055921173752604	-0.37492557942285604	0.0	1.2865105015166762	-0.3855355958527413	0.0	1.2472003092729345	-0.40727626854053217	0.0	1.1780005994095755	-0.37914777663506705	0.0	1.1110835526349443	-0.42213422917998333	0.0	1.0981307154926463	-0.48789143270312063	0.0	1.1967021850077986	-0.36197203426066676	0.0	1.1534366623224708	-0.40139282355947853	0.0	1.139078538553507	-0.4647951207411045	0.0
83	2.784177215189873	1.063265556430847	-0.40300345803574356	0.0	1.0607586604144983	-0.4038761249369185	0.0	1.069711639267667	-0.5261481710505492	0.0	1.0267901943267372	-0.6097472644203433	0.0	1.0602569377234032	-0.6566536274744365	0.0	1.0474793127826838	-0.6552443286794875	0.0	1.0115287142754643	-0.6143459711682125	0.0	1.067033349640763	-0.40217793088149273	0.0	1.0769900574074582	-0.5219531713743069	0.0	1.0276262039144624	-0.5989298698969229	0.0	1.060575154195847	-0.6417797651818153	0.0	1.0402591559197243	-0.6358002918139006	0.0	0.9984695047346518	-0.6001906682643954	0.0	1.2060095482118918	-0.37859001505564555	0.0	1.2896127294426447	-0.37308580063228425	0.0	1.2529764471559108	-0.40213679092869653	0.0	1.1804949250930266	-0.3865329668623159	0.0	1.1300988701900183	-0.45310485433980907	0.0	1.1341516561781921	-0.5239156992126431	0.0	1.1951801214059572	-0.36808004675399913	0.0	1.165291440596871	-0.4261594616545613	0.0	1.1679479760822562	-0.4878394377022037	0.0
84	2.8177215189873417	1.0630192214881935	-0.4486652925143022	0.0	1.0634479634658582	-0.449654721501448	0.0	1.084714549078918	-0.5708844625781679	0.0	1.0593376736003475	-0.678810509998823	0.0	1.1005479166311012	-0.7180298679513106	0.0	1.0882238880895119	-0.7188815538220964	0.0	1.0455014660873463	-0.6882790440380685	0.0	1.0641734149528286	-0.44753285967540335	0.0	1.0828192396329583	-0.5671319017069836	0.0	1.0480207091506384	-0.6658449527613632	0.0	1.0884549937028667	-0.7015637531455112	0.0	1.066771250620865	-0.6959521612487918	0.0	1.024383079261194	-0.6737158217607857	0.0	1.1996514416041173	-0.3898460864361125	0.0	1.2817218556966767	-0.36949876541415316	0.0	1.248915016844948	-0.40452256966860084	0.0	1.1773408810742192	-0.39979892806459044	0.0	1.14899772053713	-0.4796810525615411	0.0	1.1722113584865355	-0.5477158020266039	0.0	1.1883480374138644	-0.3824579699555051	0.0	1.1772424169838738	-0.4482114458085195	0.0	1.197772421265933	-0.500354650479061	0.0
85	2.85126582278481	1.0652082007654284	-0.49610603024339783	0.0	1.0680172289626844	-0.49718708937050154	0.0	1.098830430376364	-0.6163627547160317	0.0	1.0881860720540537	-0.7380306694593111	0.0	1.1328952272219255	-0.7684437272405134	0.0	1.1211905819582058	-0.7712017607123174	0.0	1.0759256550118304	-0.7501702668766231	0.0	1.0642055247426037	-0.4947894203978335	0.0	1.0893362549170011	-0.6137823190998057	0.0	1.066660025397553	-0.7243135078049265	0.0	1.1091034002356608	-0.7524649891417619	0.0	1.0878743854306512	-0.7475143618854883	0.0	1.04934598075693	-0.7367322283152115	0.0	1.18867718788728	-0.408305712593481	0.0	1.2657648720914387	-0.3747063591349248	0.0	1.2381535115153302	-0.4143536616841382	0.0	1.1703100168188367	-0.4189737591252392	0.0	1.16668951564006	-0.500255202368495	0.0	1.2085617737681358	-0.5570855725717231	0.0	1.1778795602294512	-0.4041988620239138	0.0	1.1882141648689446	-0.4663176097004443	0.0	1.2245354083290763	-0.502504457654091	0.0
86	2.8848101265822783	1.0692576727008534	-0.5430511940628057	0.0	1.0734116746261657	-0.5441815271183037	0.0	1.111968698917309	-0.6612451852342305	0.0	1.1090171835794924	-0.7877190087369149	0.0	1.1546789130249158	-0.8095489543034925	0.0	1.143089941854335	-0.8136742982321858	0.0	1.0976829929399026	-0.8001563998434178	0.0	1.0666847437526057	-0.5416864031586662	0.0	1.096828972074415	-0.6599904640829741	0.0	1.0808426843572565	-0.7738694954620398	0.0	1.1218308928873368	-0.7957752000873627	0.0	1.1017745938191819	-0.7914457407252964	0.0	1.0686162027681056	-0.7890523463398241	0.0	1.175176333910565	-0.43232374681359836	0.0	1.244702633283479	-0.38734685853018963	0.0	1.2236761626368626	-0.4302893815757977	0.0	1.16093197888249	-0.44319813263446617	0.0	1.181732070464981	-0.5143608595522802	0.0	1.23861988201379	-0.5525182230964271	0.0	1.1651837427690064	-0.43099446592522983	0.0	1.1964686434038687	-0.4799616460585602	0.0	1.24422467220107	-0.49636550963208137	0.0
87	2.918354430379747	1.0740287447835573	-0.586361220894984	0.0	1.0784607384790574	-0.587586219670126	0.0	1.1236222664695215	-0.7028531507280078	0.0	1.120657105728737	-0.8279021125720294	0.0	1.1662106949555504	-0.8421090449369161	0.0	1.1541077012717174	-0.8469112521763269	0.0	1.109394040671808	-0.8386997711929229	0.0	1.07032645399055	-0.5850790351038448	0.0	1.1043314197404603	-0.7025041417454819	0.0	1.0893443555601925	-0.8137695988202971	0.0	1.127579090674161	-0.8316435755259274	0.0	1.108617958566405	-0.8279463241769554	0.0	1.080259941052003	-0.8305858730361776	0.0	1.1610922240888533	-0.4590569854416603	0.0	1.2217107967710485	-0.40492409420859293	0.0	1.2080333741135791	-0.4498103510518506	0.0	1.1506303800795712	-0.4701793599123613	0.0	1.19273629131398	-0.522398345183005	0.0	1.2587077499162784	-0.5372142292878165	0.0	1.1516057723346085	-0.45961427336798305	0.0	1.2002573015611848	-0.48949366170546793	0.0	1.2542704206386799	-0.48546706650215654	0.0
88	2.951898734177215	1.0782158786015184	-0.6226174192505703	0.0	1.0821269140327163	-0.623979351935583	0.0	1.1333450226092328	-0.7372550931521681	0.0	1.1246851898851962	-0.857751867935553	0.0	1.1699063535830887	-0.8658662303708876	0.0	1.1571263992171417	-0.8705901471982085	0.0	1.1128444256719572	-0.86593858141051	0.0	1.0735690357139824	-0.6214663312107909	0.0	1.1108995634538885	-0.73725412989311	0.0	1.0928346839248992	-0.8427896296219235	0.0	1.1283946630889954	-0.8589567796978935	0.0	1.1100052162412428	-0.8560426348986527	0.0	1.0850905569879163	-0.8607475838519182	0.0	1.148054998436726	-0.48474573126265674	0.0	1.1999708362892278	-0.4239479907667326	0.0	1.193177582157737	-0.4694634570825094	0.0	1.140796547575805	-0.49616553428939103	0.0	1.1988766229736505	-0.5251951266508195	0.0	1.2676010179830601	-0.5161586848934832	0.0	1.1385456334930955	-0.48640182252765296	0.0	1.1984299344275413	-0.49583840638804827	0.0	1.2544573779538082	-0.47400618139242373	0.0
89	2.9854430379746835	1.0808099209556046	-0.6488481213302367	0.0	1.0837735953800984	-0.6503090147172845	0.0	1.1411396011441755	-0.7601803380101997	0.0	1.1241725683784043	-0.875579145894448	0.0	1.16911920907132	-0.8797090185960704	0.0	1.1562624646040394	-0.8838525702645924	0.0	1.111473848553786	-0.8814063914305801	0.0	1.0752012883559454	-0.6477528947356552	0.0	1.1163402200338397	-0.7602249003030483	0.0	1.093289060955815	-0.8595900038242918	0.0	1.1270104270307586	-0.8755897952319364	0.0	1.1084069696775423	-0.8735724619475362	0.0	1.085665689163603	-0.8783089266528358	0.0	1.1372092019001718	-0.5053537945262362	0.0	1.1819282408853107	-0.440430991600924	0.0	1.180406198120313	-0.4854866505292609	0.0	1.1324857149145424	-0.5169167095915088	0.0	1.2002737470689464	-0.523725811350177	0.0	1.267001622042602	-0.49452713196702414	0.0	1.1273064930890693	-0.5077130553360587	0.0	1.1907707372900291	-0.49992844315492607	0.0	1.2468829261916867	-0.4657486006164486	0.0
90	3.0189873417721516	1.0813188428330458	-0.663059955809288	0.0	1.0832628297266225	-0.6645539337306161	0.0	1.147393926970415	-0.7684387984814078	0.0	1.1222256478280166	-0.8796102781549606	0.0	1.1669086960725648	-0.8822368060815936	0.0	1.1549405024225652	-0.8858318750874686	0.0	1.1087496677691426	-0.8843741091146822	0.0	1.0747134703495824	-0.6618905124246519	0.0	1.1210799392097142	-0.7685418634231062	0.0	1.092922378909961	-0.8633414199488151	0.0	1.1260160755385036	-0.8793705814985299	0.0	1.1065155045098032	-0.8781114355375694	0.0	1.0848590004606562	-0.8819664147132013	0.0	1.1290878270168463	-0.5174599722376467	0.0	1.1686725969222347	-0.45069756097784014	0.0	1.1704081473867256	-0.4945833419532107	0.0	1.1261040672052078	-0.5289636597415732	0.0	1.198083582201961	-0.518832532066033	0.0	1.260690538806111	-0.47599155521161257	0.0	1.118773100083012	-0.520485242924777	0.0	1.1778462759371244	-0.502287986155582	0.0	1.2347947931749286	-0.46309082532474183	0.0
